<svg id="svg" version="1.1" width="300" height="300" viewBox="0 0 400 400" xmlns="http://www.w3.org/2000/svg" xmlns:xlink="http://www.w3.org/1999/xlink" ><g id="svgg"><path id="path0" d="M105.664 110.964 L 11.523 205.132 23.242 216.608 L 34.961 228.084 42.191 220.878 C 46.168 216.915,49.552 213.672,49.711 213.672 C 49.870 213.672,50.000 244.347,50.000 281.839 L 50.000 350.007 71.973 349.906 L 93.945 349.805 94.141 285.742 C 94.342 219.723,94.354 220.313,92.783 220.313 C 91.308 220.313,91.346 219.367,91.388 254.990 C 91.430 290.507,91.299 293.684,89.655 296.863 C 84.809 306.234,72.811 303.493,70.896 292.578 C 70.168 288.429,70.019 211.948,70.728 206.754 C 71.961 197.735,78.483 190.609,88.342 187.511 C 93.232 185.974,125.735 185.902,128.196 187.423 C 130.252 188.694,130.139 185.391,130.092 243.006 C 130.045 299.977,129.990 298.323,132.058 302.584 C 133.246 305.033,137.301 309.375,138.400 309.375 C 138.712 309.375,139.167 309.617,139.413 309.912 C 140.103 310.744,142.740 311.294,147.759 311.654 C 151.828 311.946,152.470 312.091,153.363 312.925 C 155.498 314.920,155.469 314.643,155.469 332.988 L 155.469 350.000 159.082 350.000 L 162.695 350.000 162.593 281.738 C 162.483 208.245,162.569 212.500,161.193 212.500 C 159.096 212.500,159.195 210.594,158.984 255.040 L 158.789 296.289 157.703 298.500 C 153.079 307.916,140.844 307.142,137.070 297.195 L 136.133 294.727 136.133 245.703 C 136.133 191.051,135.985 194.174,138.811 189.063 C 140.824 185.423,147.280 178.906,148.873 178.906 C 149.038 178.906,149.827 178.521,150.624 178.051 C 156.144 174.794,158.364 174.631,197.070 174.630 C 235.526 174.629,239.181 174.902,243.733 178.104 C 244.279 178.489,245.131 178.929,245.625 179.083 C 247.692 179.725,254.073 186.738,255.772 190.234 C 258.571 195.995,258.594 196.459,258.591 246.227 C 258.587 290.609,258.462 294.708,257.012 297.986 C 252.520 308.142,239.365 307.283,236.131 296.624 C 235.640 295.005,235.555 288.778,235.551 254.260 C 235.546 209.662,235.701 212.500,233.277 212.500 C 231.988 212.500,232.035 210.068,231.932 282.129 L 231.836 350.000 238.867 350.000 L 245.898 350.000 245.898 333.301 C 245.899 312.862,245.829 313.123,251.775 311.301 C 253.270 310.843,254.756 310.259,255.078 310.003 C 255.400 309.746,256.168 309.284,256.783 308.975 C 259.197 307.764,262.059 303.865,263.572 299.726 C 264.335 297.641,264.649 198.499,263.911 192.921 C 263.514 189.925,264.072 188.526,266.166 187.263 C 267.740 186.314,294.883 185.932,305.469 186.710 C 319.790 187.762,328.680 194.987,330.473 207.031 C 331.301 212.593,330.823 293.130,329.948 295.388 C 327.026 302.935,318.639 304.881,313.510 299.204 C 310.185 295.524,310.148 295.025,310.175 254.586 C 310.199 219.376,310.236 220.313,308.814 220.313 C 306.815 220.313,306.903 217.014,307.070 285.755 L 307.227 349.999 328.613 349.999 L 350.000 350.000 350.000 281.836 C 350.000 244.346,350.130 213.672,350.289 213.672 C 350.448 213.672,353.832 216.914,357.809 220.876 L 365.039 228.080 376.758 216.605 L 388.477 205.130 360.840 177.466 L 333.203 149.803 333.203 99.901 L 333.203 50.000 308.398 50.000 L 283.594 50.000 283.594 74.805 C 283.594 88.447,283.462 99.609,283.300 99.609 C 283.139 99.609,264.374 80.977,241.602 58.203 C 218.829 35.430,200.108 16.797,200.000 16.797 C 199.892 16.797,157.441 59.172,105.664 110.964 M203.125 113.952 C 209.729 115.768,219.898 124.256,219.924 127.974 C 219.926 128.164,220.190 128.825,220.512 129.443 C 223.040 134.289,223.022 143.871,220.477 148.750 C 220.174 149.330,219.926 149.924,219.924 150.070 C 219.901 152.676,212.170 160.382,207.248 162.705 C 193.128 169.368,176.081 160.537,172.118 144.506 C 167.741 126.799,185.653 109.149,203.125 113.952 M131.839 133.073 C 148.141 139.667,152.459 158.653,140.503 171.168 C 130.666 181.464,114.146 179.749,106.065 167.593 C 105.092 166.131,104.297 164.796,104.297 164.627 C 104.297 164.457,103.869 163.248,103.345 161.940 C 101.512 157.358,101.650 151.148,103.684 146.703 C 104.236 145.496,104.688 144.423,104.688 144.318 C 104.688 143.598,109.078 138.319,110.703 137.086 C 111.799 136.254,113.135 135.244,113.672 134.840 C 117.906 131.661,126.323 130.842,131.839 133.073 M283.290 132.970 C 293.915 136.992,301.388 150.091,298.468 159.573 C 292.749 178.140,273.438 184.074,260.620 171.201 C 243.765 154.275,261.328 124.655,283.290 132.970 M123.641 304.004 C 123.530 304.487,123.395 315.034,123.341 327.442 L 123.242 350.000 124.658 350.000 C 125.913 350.000,126.100 349.869,126.304 348.850 C 126.618 347.279,126.686 304.031,126.374 303.527 C 125.872 302.714,123.857 303.065,123.641 304.004 M274.846 303.743 C 274.716 304.083,274.609 314.630,274.609 327.180 L 274.609 350.000 276.270 350.000 L 277.930 350.000 277.822 327.051 C 277.762 314.429,277.636 303.882,277.541 303.613 C 277.288 302.898,275.131 303.002,274.846 303.743 M195.504 305.957 C 195.407 306.226,195.281 316.245,195.223 328.223 L 195.117 350.000 197.070 350.000 L 199.023 350.000 198.949 328.429 C 198.907 316.564,198.792 306.545,198.692 306.163 C 198.477 305.339,195.788 305.165,195.504 305.957 " stroke="none" fill="#fcfbfb" fill-rule="evenodd"></path><path id="path1" d="M283.387 74.805 C 283.387 88.555,283.436 94.123,283.496 87.179 C 283.556 80.234,283.556 68.984,283.496 62.179 C 283.436 55.373,283.387 61.055,283.387 74.805 M333.299 99.806 L 333.203 149.807 361.035 177.540 L 388.867 205.273 361.232 177.539 L 333.596 149.805 333.496 99.805 L 333.395 49.805 333.299 99.806 M60.351 155.957 L 11.133 205.273 60.449 156.055 C 106.298 110.297,109.941 106.641,109.667 106.641 C 109.613 106.641,87.421 128.833,60.351 155.957 M194.922 113.157 C 179.927 114.792,168.617 130.341,172.118 144.506 C 176.081 160.537,193.128 169.368,207.248 162.705 C 212.170 160.382,219.901 152.676,219.924 150.070 C 219.926 149.924,220.174 149.330,220.477 148.750 C 223.022 143.871,223.040 134.289,220.512 129.443 C 220.190 128.825,219.926 128.164,219.924 127.974 C 219.918 126.998,216.120 122.067,213.606 119.769 C 208.509 115.112,201.087 112.485,194.922 113.157 M202.344 114.319 C 214.608 117.717,223.909 131.234,221.723 142.480 C 216.490 169.406,182.574 171.921,173.169 146.081 C 167.095 129.393,185.283 109.592,202.344 114.319 M118.164 132.858 C 116.230 133.545,114.209 134.437,113.672 134.840 C 113.135 135.244,111.799 136.254,110.703 137.086 C 109.078 138.319,104.688 143.598,104.688 144.318 C 104.688 144.423,104.236 145.496,103.684 146.703 C 101.650 151.148,101.512 157.358,103.345 161.940 C 103.869 163.248,104.297 164.457,104.297 164.627 C 104.297 165.428,108.064 170.464,109.959 172.196 C 125.958 186.818,150.890 171.757,146.701 150.000 C 144.226 137.142,130.059 128.632,118.164 132.858 M270.364 132.616 C 253.022 138.673,248.006 158.534,260.620 171.201 C 273.438 184.074,292.749 178.140,298.468 159.573 C 303.034 144.747,285.042 127.489,270.364 132.616 M130.678 133.361 C 150.894 140.699,152.202 166.376,132.825 175.511 C 120.622 181.264,105.974 172.737,102.842 158.057 C 99.743 143.535,116.863 128.347,130.678 133.361 M279.898 132.623 C 292.691 135.875,301.053 149.103,297.475 160.429 C 290.088 183.812,259.305 182.111,254.434 158.050 C 251.684 144.463,266.860 129.309,279.898 132.623 M180.205 174.902 C 189.621 174.961,204.914 174.961,214.190 174.902 C 223.465 174.844,215.762 174.796,197.070 174.796 C 178.379 174.796,170.790 174.844,180.205 174.902 M158.203 175.245 C 157.881 175.346,156.387 175.813,154.883 176.284 C 153.379 176.754,151.493 177.537,150.691 178.023 C 149.890 178.509,149.079 178.906,148.889 178.906 C 147.324 178.906,140.951 185.268,138.926 188.851 C 135.951 194.115,136.152 190.140,136.130 243.945 L 136.109 291.992 136.319 244.336 C 136.553 191.137,136.310 195.552,139.314 189.804 C 143.082 182.592,151.724 176.694,160.366 175.435 L 162.695 175.095 160.742 175.078 C 159.668 175.069,158.525 175.144,158.203 175.245 M233.777 175.403 C 244.697 177.145,254.048 185.185,257.096 195.454 L 257.808 197.852 257.591 195.703 C 257.096 190.803,249.531 180.296,245.625 179.083 C 245.131 178.929,244.279 178.489,243.733 178.104 C 241.969 176.863,237.025 175.355,234.180 175.189 L 231.445 175.030 233.777 175.403 M104.199 186.620 C 107.690 186.685,113.403 186.685,116.895 186.620 C 120.386 186.556,117.529 186.503,110.547 186.503 C 103.564 186.503,100.708 186.556,104.199 186.620 M279.004 186.621 C 283.462 186.683,290.757 186.683,295.215 186.621 C 299.673 186.558,296.025 186.507,287.109 186.507 C 278.193 186.507,274.546 186.558,279.004 186.621 M126.555 187.598 C 128.728 188.708,129.646 189.970,130.054 192.408 L 130.377 194.336 130.409 192.188 C 130.458 188.925,128.682 186.727,125.991 186.721 C 124.877 186.719,124.898 186.751,126.555 187.598 M265.937 187.394 C 264.229 188.453,263.532 190.141,263.869 192.400 C 264.305 195.327,264.535 295.596,264.110 297.598 C 263.839 298.878,263.861 299.186,264.199 298.848 C 264.633 298.414,264.846 199.365,264.427 193.090 C 264.233 190.178,264.940 188.950,267.586 187.598 C 269.238 186.754,269.260 186.719,268.149 186.729 C 267.513 186.735,266.517 187.034,265.937 187.394 M87.891 187.669 C 82.697 189.663,81.013 190.636,77.734 193.540 C 72.236 198.410,69.963 204.885,70.394 214.453 L 70.544 217.773 70.624 213.609 C 70.884 199.950,77.433 191.072,89.599 187.882 C 92.081 187.232,92.213 187.152,90.820 187.148 C 89.961 187.146,88.643 187.380,87.891 187.669 M310.762 187.693 C 322.727 190.921,329.596 199.102,330.442 211.133 C 330.741 215.381,330.745 215.395,330.802 212.337 C 330.973 203.107,327.649 196.299,320.508 191.257 C 317.678 189.260,312.316 187.100,310.274 187.135 L 308.789 187.161 310.762 187.693 M129.874 246.563 C 129.882 290.759,129.967 298.867,130.428 299.297 C 130.882 299.719,130.915 299.706,130.624 299.219 C 130.425 298.886,130.186 276.137,130.070 246.484 L 129.866 194.336 129.874 246.563 M258.392 246.289 C 258.392 270.781,258.439 280.858,258.496 268.682 C 258.553 256.507,258.553 236.468,258.496 224.151 C 258.439 211.835,258.392 221.797,258.392 246.289 M159.716 212.793 C 159.234 213.408,159.246 213.424,159.842 212.958 C 160.206 212.673,160.909 212.497,161.404 212.568 L 162.305 212.695 162.502 279.297 L 162.699 345.898 162.795 279.473 C 162.869 228.222,162.784 212.940,162.422 212.578 C 161.738 211.894,160.333 212.005,159.716 212.793 M232.045 212.865 C 231.770 213.379,231.671 234.616,231.736 279.369 L 231.831 345.117 232.032 278.906 C 232.142 242.490,232.275 212.651,232.327 212.598 C 232.662 212.253,234.249 212.610,234.930 213.184 C 235.741 213.866,235.741 213.866,234.998 212.988 C 234.085 211.910,232.590 211.847,232.045 212.865 M42.188 220.898 L 34.970 228.124 29.497 222.753 L 24.023 217.383 29.488 222.950 L 34.952 228.517 42.281 221.196 C 46.311 217.169,49.609 213.829,49.609 213.773 C 49.609 213.498,48.901 214.177,42.188 220.898 M357.613 220.996 L 365.030 228.515 370.601 222.954 C 373.665 219.895,376.172 217.304,376.172 217.194 C 376.172 217.085,373.668 219.499,370.608 222.559 L 365.045 228.123 357.620 220.800 L 350.195 213.477 357.613 220.996 M91.271 220.636 C 90.604 221.374,90.389 223.246,90.934 223.582 C 91.104 223.687,91.177 223.205,91.095 222.509 C 90.933 221.116,91.444 220.488,92.969 220.208 L 93.945 220.028 92.932 219.975 C 92.374 219.946,91.627 220.243,91.271 220.636 M307.391 220.605 C 306.951 221.187,306.955 221.216,307.421 220.801 C 308.075 220.218,309.623 220.156,309.958 220.699 C 310.090 220.912,310.227 236.512,310.263 255.367 L 310.329 289.648 310.536 255.664 C 310.700 228.565,310.641 221.502,310.245 220.801 C 309.646 219.742,308.123 219.638,307.391 220.605 M94.336 222.461 C 94.336 223.172,94.468 223.672,94.629 223.572 C 94.790 223.473,94.922 222.973,94.922 222.461 C 94.922 221.949,94.790 221.449,94.629 221.349 C 94.468 221.250,94.336 221.750,94.336 222.461 M91.202 257.031 C 91.202 275.186,91.250 282.612,91.308 273.535 C 91.367 264.458,91.367 249.604,91.308 240.527 C 91.250 231.450,91.202 238.877,91.202 257.031 M70.377 285.352 C 70.342 287.500,70.576 290.752,70.896 292.578 C 73.290 306.225,89.406 305.718,90.821 291.952 L 91.017 290.039 90.422 292.363 C 88.089 301.470,80.015 304.585,74.517 298.500 C 71.855 295.554,71.062 293.057,70.712 286.523 L 70.440 281.445 70.377 285.352 M330.469 288.004 C 330.469 302.985,315.063 307.002,311.235 293.020 L 310.525 290.430 310.738 292.705 C 311.804 304.096,326.164 306.110,329.872 295.388 C 330.508 293.550,331.200 285.547,330.723 285.547 C 330.583 285.547,330.469 286.653,330.469 288.004 M158.594 292.759 C 158.594 297.791,153.554 303.723,148.611 304.508 C 144.052 305.233,138.570 300.536,136.954 294.522 C 136.411 292.501,136.378 292.462,136.354 293.813 C 136.183 303.307,147.973 308.521,155.084 302.097 C 157.547 299.871,160.523 291.406,158.843 291.406 C 158.706 291.406,158.594 292.015,158.594 292.759 M235.597 292.969 C 235.237 308.251,256.692 309.158,257.986 293.914 C 258.166 291.793,258.153 291.740,257.822 293.267 C 254.660 307.855,238.407 307.912,235.992 293.343 L 235.638 291.211 235.597 292.969 M262.234 302.841 C 261.235 304.895,258.273 308.228,256.783 308.975 C 256.168 309.284,255.400 309.746,255.078 310.003 C 254.756 310.259,253.270 310.843,251.775 311.301 C 247.974 312.466,246.058 314.620,246.120 317.660 L 246.146 318.945 246.654 317.320 C 247.691 314.004,248.214 313.582,255.469 310.206 C 257.299 309.355,262.032 304.579,262.751 302.857 C 263.574 300.888,263.190 300.876,262.234 302.841 M131.541 302.516 C 131.641 303.040,132.040 303.756,132.428 304.108 C 133.063 304.682,133.054 304.585,132.347 303.154 C 131.436 301.314,131.288 301.197,131.541 302.516 M123.451 303.490 C 123.183 303.991,123.078 311.654,123.138 326.244 L 123.230 348.242 123.439 325.781 C 123.554 313.428,123.689 303.257,123.738 303.180 C 123.788 303.103,124.443 303.111,125.195 303.199 C 125.947 303.287,126.563 303.218,126.563 303.047 C 126.563 302.350,123.855 302.736,123.451 303.490 M274.870 302.995 C 274.727 303.138,274.612 303.446,274.615 303.678 C 274.619 303.911,274.770 303.868,274.951 303.582 C 275.138 303.287,275.768 303.118,276.410 303.191 L 277.539 303.320 277.739 325.391 L 277.939 347.461 278.032 325.566 C 278.103 308.953,278.012 303.559,277.656 303.203 C 277.155 302.702,275.301 302.563,274.870 302.995 M135.066 307.051 C 137.757 309.886,140.842 311.458,143.945 311.576 L 146.289 311.666 143.945 311.351 C 140.477 310.885,138.205 309.731,135.156 306.887 L 133.008 304.883 135.066 307.051 M195.391 305.547 C 195.035 305.902,194.944 311.124,195.014 327.129 L 195.107 348.242 195.307 326.953 L 195.508 305.664 197.131 305.664 C 198.024 305.664,198.673 305.532,198.573 305.371 C 198.282 304.902,195.904 305.033,195.391 305.547 M198.861 327.023 C 198.837 338.479,198.952 348.331,199.116 348.917 C 199.280 349.504,199.383 340.215,199.345 328.275 C 199.307 316.336,199.192 306.484,199.090 306.381 C 198.987 306.279,198.884 315.568,198.861 327.023 M149.805 312.050 C 152.455 312.760,154.092 314.307,154.886 316.853 C 155.409 318.532,155.417 318.538,155.443 317.266 C 155.500 314.458,153.332 312.089,150.513 311.878 C 149.021 311.766,148.875 311.801,149.805 312.050 M245.877 333.594 C 245.877 340.361,245.930 343.130,245.995 339.746 C 246.060 336.362,246.060 330.825,245.995 327.441 C 245.930 324.058,245.877 326.826,245.877 333.594 M94.266 346.875 C 94.266 348.271,94.337 348.843,94.423 348.145 C 94.510 347.446,94.510 346.304,94.423 345.605 C 94.337 344.907,94.266 345.479,94.266 346.875 M307.092 347.266 C 307.053 347.803,306.911 348.682,306.777 349.219 C 306.591 349.969,306.644 350.094,307.005 349.759 C 307.277 349.506,307.409 348.682,307.319 347.805 C 307.230 346.947,307.132 346.713,307.092 347.266 M155.169 348.828 C 155.169 349.580,155.249 349.888,155.347 349.512 C 155.446 349.136,155.446 348.521,155.347 348.145 C 155.249 347.769,155.169 348.076,155.169 348.828 M162.891 349.023 C 162.891 349.561,163.042 350.000,163.227 350.000 C 163.412 350.000,163.480 349.561,163.377 349.023 C 163.274 348.486,163.123 348.047,163.040 348.047 C 162.958 348.047,162.891 348.486,162.891 349.023 M231.154 349.023 C 231.052 349.561,231.119 350.000,231.304 350.000 C 231.489 350.000,231.641 349.561,231.641 349.023 C 231.641 348.486,231.573 348.047,231.491 348.047 C 231.408 348.047,231.257 348.486,231.154 349.023 " stroke="none" fill="#fcc05d" fill-rule="evenodd"></path><path id="path2" d="M197.461 6.585 C 196.172 6.938,194.678 7.465,194.141 7.756 C 192.819 8.473,3.692 197.514,2.679 199.130 C 0.481 202.638,0.678 207.968,3.139 211.543 C 4.331 213.276,26.586 235.207,28.826 236.857 C 30.949 238.420,34.576 239.145,37.032 238.497 L 39.063 237.961 39.063 293.607 C 39.063 344.129,39.122 349.495,39.711 351.873 C 40.895 356.662,43.323 359.088,48.127 360.285 C 52.168 361.292,347.832 361.292,351.873 360.285 C 356.677 359.088,359.105 356.662,360.289 351.873 C 360.878 349.495,360.937 344.129,360.938 293.607 L 360.938 237.961 362.968 238.497 C 368.089 239.848,369.070 239.200,384.066 224.569 C 398.885 210.110,399.991 208.447,398.642 202.645 C 397.828 199.146,397.971 199.303,370.330 171.681 L 344.141 145.510 344.141 97.909 C 344.141 46.108,344.195 47.467,341.979 44.070 C 338.840 39.260,337.499 39.061,308.318 39.069 C 271.552 39.079,272.674 38.361,272.662 61.911 L 272.656 74.017 239.941 41.363 C 202.892 4.381,206.339 7.457,200.391 6.079 C 200.068 6.004,198.750 6.232,197.461 6.585 M241.699 58.300 L 283.203 99.803 283.203 74.902 L 283.203 50.000 308.398 50.000 L 333.594 50.000 333.594 99.903 L 333.594 149.807 361.132 177.343 L 388.671 204.879 376.858 216.697 L 365.045 228.514 357.523 220.999 L 350.000 213.484 350.000 281.742 L 350.000 350.000 328.289 350.000 L 306.579 350.000 306.903 348.730 C 307.081 348.032,307.157 319.034,307.071 284.289 C 306.905 216.812,306.822 219.922,308.789 219.922 C 310.633 219.922,310.590 219.060,310.558 255.413 C 310.524 293.250,310.526 293.278,312.894 297.012 C 317.874 304.865,327.262 302.427,329.967 292.578 C 331.021 288.739,331.036 211.207,329.983 206.641 C 327.621 196.393,319.118 188.908,307.813 187.125 C 302.121 186.227,269.518 186.610,267.586 187.598 C 264.940 188.950,264.233 190.178,264.427 193.090 C 264.839 199.258,264.633 298.337,264.207 298.866 C 263.965 299.167,263.479 300.416,263.128 301.642 C 262.408 304.150,258.079 308.992,255.469 310.206 C 245.567 314.814,246.002 313.660,246.170 334.864 L 246.289 350.000 238.601 350.000 L 230.914 350.000 231.277 348.733 C 231.495 347.974,231.641 320.642,231.641 280.543 C 231.641 211.110,231.617 212.109,233.284 212.109 C 235.695 212.109,235.547 209.495,235.550 251.916 C 235.553 292.215,235.615 293.853,237.285 297.519 C 242.319 308.568,255.478 305.581,257.830 292.855 C 258.619 288.592,258.106 198.662,257.278 195.898 C 254.372 186.203,246.411 178.596,236.328 175.879 C 232.404 174.822,161.671 174.831,157.838 175.889 C 147.006 178.880,138.903 186.780,136.914 196.289 C 136.029 200.519,136.048 290.946,136.934 294.352 C 140.166 306.761,153.153 307.902,157.882 296.192 L 158.789 293.945 158.984 253.673 C 159.194 210.513,159.112 212.109,161.103 212.109 C 162.969 212.109,162.891 209.119,162.891 280.256 C 162.891 320.532,163.036 347.974,163.254 348.733 L 163.617 350.000 159.445 350.000 L 155.273 350.000 155.406 334.863 C 155.597 313.004,155.320 312.328,145.926 311.752 C 139.426 311.354,132.326 306.666,131.481 302.213 C 131.351 301.533,130.939 300.449,130.564 299.805 C 129.926 298.707,129.878 295.200,129.802 244.550 C 129.711 183.424,130.053 189.396,126.540 187.580 L 124.805 186.683 108.789 186.821 C 93.902 186.949,92.563 187.017,89.788 187.789 C 79.870 190.545,73.177 197.322,71.169 206.638 C 70.296 210.691,70.176 287.418,71.037 291.176 C 74.119 304.629,87.321 305.315,90.405 292.182 C 90.991 289.685,91.397 224.079,90.829 223.511 C 89.911 222.593,91.283 219.922,92.674 219.922 C 94.168 219.922,95.661 222.935,94.517 223.642 C 94.240 223.813,94.121 243.657,94.141 286.458 C 94.157 320.869,94.164 349.243,94.155 349.512 C 94.144 349.896,89.458 350.000,72.070 350.000 L 50.000 350.000 50.000 281.740 L 50.000 213.479 42.482 220.997 L 34.965 228.515 23.119 216.699 L 11.273 204.883 105.539 110.854 C 157.385 59.139,199.892 16.820,199.999 16.811 C 200.106 16.803,218.871 35.473,241.699 58.300 M194.282 113.697 C 179.077 116.323,168.335 132.799,173.169 146.081 C 182.574 171.921,216.490 169.406,221.723 142.480 C 224.522 128.083,208.471 111.246,194.282 113.697 M120.986 132.621 C 109.416 135.538,100.657 147.818,102.842 158.057 C 108.093 182.669,139.950 183.612,146.304 159.344 C 149.936 145.473,134.525 129.207,120.986 132.621 M273.218 132.432 C 261.419 134.774,252.253 147.274,254.434 158.050 C 259.305 182.111,290.088 183.812,297.475 160.429 C 301.867 146.527,287.243 129.648,273.218 132.432 M126.580 303.613 C 126.594 304.335,126.583 344.466,126.567 348.730 C 126.563 349.984,126.539 350.000,124.707 350.000 L 122.852 350.000 122.961 327.100 C 123.030 312.735,123.217 303.927,123.463 303.467 C 124.075 302.324,126.557 302.440,126.580 303.613 M277.672 303.245 C 277.963 303.595,278.130 310.995,278.208 326.878 L 278.320 350.000 276.367 350.000 L 274.414 350.000 274.518 326.856 C 274.575 314.126,274.701 303.491,274.798 303.223 C 275.032 302.578,277.132 302.594,277.672 303.245 M198.843 305.887 C 199.142 306.446,199.297 313.377,199.345 328.348 L 199.414 350.000 197.070 350.000 L 194.727 350.000 194.840 328.049 C 194.917 313.032,195.087 305.936,195.376 305.588 C 196.068 304.754,198.341 304.950,198.843 305.887 " stroke="none" fill="#fc9c04" fill-rule="evenodd"></path></g></svg>