<svg id="svg" version="1.1" width="1024" height="1024" xmlns="http://www.w3.org/2000/svg" xmlns:xlink="http://www.w3.org/1999/xlink" ><g id="svgg"><path id="path0" d="M105.762 110.825 C 54.038 162.537,11.719 204.944,11.719 205.063 C 11.719 205.453,34.566 228.125,34.960 228.125 C 35.171 228.125,38.642 224.831,42.672 220.805 L 50.000 213.484 50.000 281.742 L 50.000 350.000 200.000 350.000 L 350.000 350.000 350.000 281.742 L 350.000 213.484 357.328 220.805 C 361.358 224.831,364.823 228.125,365.028 228.125 C 365.441 228.125,388.281 205.443,388.281 205.032 C 388.281 204.890,375.886 192.406,360.735 177.289 L 333.189 149.805 333.196 99.902 L 333.203 50.000 308.203 50.000 L 283.203 50.000 283.203 74.902 L 283.203 99.803 241.699 58.300 C 218.871 35.473,200.106 16.798,199.999 16.800 C 199.892 16.801,157.485 59.113,105.762 110.825 M203.689 114.740 C 221.747 120.555,227.807 142.531,215.102 156.131 C 213.152 158.218,208.695 161.719,207.988 161.719 C 207.865 161.719,206.852 162.150,205.738 162.677 C 191.115 169.591,172.005 156.179,172.091 139.063 C 172.155 126.150,182.134 115.368,195.703 113.549 C 197.581 113.298,200.611 113.749,203.689 114.740 M131.055 133.402 C 147.333 139.580,151.953 158.463,140.181 170.703 C 128.797 182.541,110.287 178.146,103.990 162.109 C 97.583 145.792,115.007 127.311,131.055 133.402 M283.129 133.589 C 289.724 136.132,294.019 140.635,297.478 148.633 C 300.923 156.599,295.603 169.291,286.607 174.568 C 274.370 181.746,258.509 174.449,254.852 159.961 C 250.653 143.325,267.539 127.576,283.129 133.589 M237.977 176.051 C 247.462 179.086,254.338 185.684,257.033 194.336 C 258.323 198.478,258.549 206.246,258.552 246.484 C 258.555 295.408,258.471 296.586,254.661 300.914 C 248.359 308.073,238.108 304.612,235.986 294.610 C 235.677 293.155,235.547 280.785,235.547 252.989 C 235.547 210.561,235.643 212.500,233.529 212.500 C 231.577 212.500,231.641 210.299,231.641 278.099 L 231.641 342.188 215.209 342.188 L 198.777 342.188 198.860 324.158 C 198.949 304.845,198.971 305.078,197.070 305.078 C 195.216 305.078,195.235 304.875,195.293 324.143 L 195.347 342.188 179.119 342.188 L 162.891 342.188 162.891 277.743 L 162.891 213.299 161.940 212.677 C 160.786 211.920,159.496 212.437,159.181 213.781 C 159.069 214.258,158.936 232.754,158.884 254.883 L 158.789 295.117 157.664 297.552 C 151.796 310.257,137.569 305.717,136.290 290.732 C 135.706 283.888,136.041 198.032,136.661 195.703 C 139.476 185.132,147.061 178.109,158.398 175.575 C 162.950 174.557,234.651 174.987,237.977 176.051 M127.346 187.501 C 129.955 188.832,129.796 185.195,129.720 241.573 C 129.643 299.318,129.679 300.092,132.586 304.030 C 136.669 309.559,139.907 311.345,146.517 311.713 C 155.208 312.198,155.238 312.257,155.391 329.199 L 155.508 342.188 141.014 342.188 L 126.520 342.188 126.588 322.890 C 126.660 302.293,126.694 302.734,125.019 302.734 C 123.357 302.734,123.366 302.621,123.423 323.145 L 123.476 342.188 108.800 342.188 L 94.124 342.188 94.149 281.631 C 94.176 217.958,94.228 220.313,92.773 220.313 C 91.303 220.313,91.335 219.572,91.372 252.851 C 91.419 293.764,91.299 295.067,87.095 299.270 C 80.265 306.100,71.868 300.798,70.671 288.900 C 70.094 283.171,70.436 208.796,71.053 205.705 C 72.755 197.183,80.942 189.266,89.844 187.535 C 91.025 187.305,92.344 187.048,92.773 186.963 C 96.117 186.305,125.910 186.769,127.346 187.501 M312.695 187.849 C 321.664 190.840,327.753 196.949,329.960 205.168 C 330.754 208.126,331.237 284.504,330.500 290.530 C 328.825 304.224,314.489 306.456,311.081 293.555 C 310.547 291.533,310.219 223.503,310.739 222.662 C 311.261 221.817,309.691 220.268,308.438 220.390 L 307.227 220.508 307.335 281.348 L 307.443 342.188 292.784 342.188 L 278.125 342.188 278.125 323.217 C 278.125 303.414,278.069 302.734,276.432 302.734 C 274.593 302.734,274.609 302.549,274.609 322.930 L 274.609 342.188 260.352 342.188 L 246.094 342.188 246.096 330.176 C 246.099 314.955,246.668 313.037,251.573 311.716 C 252.530 311.458,253.754 310.949,254.293 310.585 C 254.832 310.221,255.713 309.733,256.250 309.500 C 257.449 308.981,260.938 305.937,260.938 305.409 C 260.938 305.199,261.394 304.427,261.953 303.695 C 262.512 302.962,263.137 301.700,263.342 300.889 C 263.548 300.078,263.882 298.799,264.084 298.047 C 264.307 297.219,264.438 275.622,264.416 243.305 C 264.376 184.735,264.197 188.723,266.926 187.464 C 269.669 186.198,308.733 186.527,312.695 187.849 " stroke="none" fill="#000000" fill-rule="evenodd"></path></g></svg>